# Blender v2.66 (sub 1) OBJ File: 'board.blend'
# www.blender.org
mtllib board.mtl
o Cube
v 4.439724 -4.439724 0.001474
v -4.439724 -4.439724 0.001474
v -4.439723 4.439725 0.001474
v 4.439726 4.439723 0.001474
v 4.085834 -4.085836 0.442810
v -4.085837 -4.085833 0.442810
v -4.085834 4.085837 0.442810
v 4.085835 4.085835 0.442810
v 4.134024 -4.134026 0.346825
v -4.134027 -4.134023 0.346825
v -4.134024 4.134027 0.346825
v 4.134025 4.134025 0.346825
v 4.376991 -4.376991 0.110352
v -4.376992 -4.376990 0.110352
v -4.376990 4.376992 0.110352
v 4.376992 4.376990 0.110352
v 4.250675 4.250674 0.219230
v -4.250674 4.250676 0.219230
v -4.250677 -4.250673 0.219230
v 4.250674 -4.250675 0.219230
v 4.000000 -4.000000 0.442810
v -4.000000 -4.000000 0.442810
v -4.000000 4.000000 0.442810
v 4.000000 4.000000 0.442810
v 4.000000 -4.000000 0.362179
v -4.000000 -4.000000 0.362179
v -4.000000 4.000000 0.362179
v 4.000000 4.000000 0.362179
vt 0.707605 0.729792
vt 0.270207 0.707604
vt 0.729793 0.292394
vt 0.642073 0.076824
vt 0.328888 0.071704
vt 0.329471 0.035711
vt 0.676820 0.885315
vt 0.671113 0.928295
vt 0.344813 0.877794
vt 0.114683 0.676819
vt 0.071704 0.671112
vt 0.122205 0.344813
vt 0.323181 0.114683
vt 0.768299 0.711303
vt 0.686389 0.838398
vt 0.319997 0.826544
vt 0.161601 0.686388
vt 0.173455 0.319996
vt 0.313611 0.161600
vt 0.655185 0.122204
vt 0.923176 0.642074
vt 0.877795 0.655186
vt 0.885317 0.323180
vt 0.697967 0.786143
vt 0.288696 0.768298
vt 0.292395 0.270206
vt 0.302034 0.213855
vt 0.711303 0.231700
vt 0.826545 0.680002
vt 0.838399 0.313610
vt 0.213856 0.697966
vt 0.231701 0.288696
vt 0.680002 0.173454
vt 0.786145 0.302032
vt 0.357925 0.923175
vt 0.670529 0.964288
vt 0.928296 0.328887
vt 0.964289 0.329470
vt 0.076825 0.357925
vt 0.035711 0.670528
vt 0.999900 0.999900
vt 0.000100 0.999900
vt 0.000100 0.000100
vt 0.964289 0.602282
vt 0.999900 0.599962
vt 0.035712 0.397717
vt 0.000100 0.672848
vt 0.602283 0.035711
vt 0.327151 0.000100
vt 0.397717 0.964288
vt 0.672849 0.999899
vt 0.999900 0.000100
vt 0.999900 0.327150
vt 0.000101 0.400037
vt 0.599963 0.000100
vt 0.400038 0.999899
vn 0.000000 -0.000000 -1.000000
vn -0.000000 -0.000000 1.000000
vn 0.484054 -0.484054 0.728935
vn 0.424146 -0.424177 0.800073
vn -0.484054 -0.484054 0.728935
vn -0.424177 -0.424146 0.800073
vn -0.484054 0.484054 0.728935
vn -0.424146 0.424177 0.800073
vn 0.424177 0.424177 0.800073
vn 0.866462 -0.000000 0.499242
vn 0.387707 -0.387707 0.836238
vn -0.387707 -0.387707 0.836238
vn -0.387707 0.387707 0.836238
vn 0.484054 0.484054 0.728935
vn -0.000000 -0.866466 0.499237
vn 0.000000 0.866466 0.499237
vn 0.493728 -0.493728 0.715842
vn -0.493728 -0.493728 0.715842
vn 0.387707 0.387707 0.836238
vn -0.493728 0.493728 0.715842
vn -0.866467 0.000000 0.499234
vn 0.493728 0.493728 0.715842
vn -1.000000 0.000000 0.000000
vn 1.000000 0.000000 0.000000
vn 0.000000 -1.000000 0.000000
vn 0.000000 1.000000 -0.000000
vn 0.866461 -0.000000 0.499245
vn 0.000000 -0.866462 0.499242
vn -0.866464 0.000000 0.499240
usemtl Wood_Frame
s off
f 1/1/1 2/2/1 4/3/1
f 8/4/2 7/5/2 23/6/2
s 1
f 9/7/3 5/8/4 10/9/5
f 10/10/5 6/11/6 11/12/7
f 11/13/7 7/5/8 8/4/9
s off
f 13/14/10 1/1/10 4/3/10
s 1
f 20/15/11 9/7/3 19/16/12
f 19/17/12 10/10/5 18/18/13
f 18/19/13 11/13/7 12/20/14
f 5/21/4 9/22/3 12/23/14
s off
f 1/1/15 13/24/15 14/25/15
f 3/26/16 15/27/16 16/28/16
s 1
f 13/24/17 20/15/11 14/25/18
f 9/22/3 20/29/11 17/30/19
f 14/31/18 19/17/12 15/32/20
f 15/27/20 18/19/13 17/33/19
s off
f 2/2/21 14/31/21 3/26/21
s 1
f 20/29/11 13/14/17 16/34/22
s off
f 6/35/2 5/8/2 21/36/2
f 5/21/2 8/37/2 24/38/2
f 7/39/2 6/11/2 22/40/2
usemtl Board_Surface
f 25/41/2 28/42/2 27/43/2
usemtl Wood_Frame
f 21/44/23 24/38/23 25/45/23
f 23/46/24 22/40/24 26/47/24
f 24/48/25 23/6/25 27/49/25
f 22/50/26 21/36/26 25/51/26
f 2/2/1 3/26/1 4/3/1
f 24/48/2 8/4/2 23/6/2
s 1
f 5/8/4 6/35/6 10/9/5
f 6/11/6 7/39/8 11/12/7
f 12/20/14 11/13/7 8/4/9
s off
f 16/34/27 13/14/27 4/3/27
s 1
f 9/7/3 10/9/5 19/16/12
f 10/10/5 11/12/7 18/18/13
f 17/33/19 18/19/13 12/20/14
f 8/37/9 5/21/4 12/23/14
s off
f 2/2/28 1/1/28 14/25/28
f 4/3/16 3/26/16 16/28/16
s 1
f 20/15/11 19/16/12 14/25/18
f 12/23/14 9/22/3 17/30/19
f 19/17/12 18/18/13 15/32/20
f 16/28/22 15/27/20 17/33/19
s off
f 14/31/29 15/32/29 3/26/29
s 1
f 17/30/19 20/29/11 16/34/22
s off
f 22/50/2 6/35/2 21/36/2
f 21/44/2 5/21/2 24/38/2
f 23/46/2 7/39/2 22/40/2
usemtl Board_Surface
f 26/52/2 25/41/2 27/43/2
usemtl Wood_Frame
f 24/38/23 28/53/23 25/45/23
f 27/54/24 23/46/24 26/47/24
f 28/55/25 24/48/25 27/49/25
f 26/56/26 22/50/26 25/51/26
