<?xml version="1.0" encoding="UTF-8" standalone="no"?>
<!-- Created with Inkscape (http://www.inkscape.org/) -->

<svg
   xmlns:dc="http://purl.org/dc/elements/1.1/"
   xmlns:cc="http://creativecommons.org/ns#"
   xmlns:rdf="http://www.w3.org/1999/02/22-rdf-syntax-ns#"
   xmlns:svg="http://www.w3.org/2000/svg"
   xmlns="http://www.w3.org/2000/svg"
   xmlns:sodipodi="http://sodipodi.sourceforge.net/DTD/sodipodi-0.dtd"
   xmlns:inkscape="http://www.inkscape.org/namespaces/inkscape"
   width="240"
   height="240"
   id="svg2"
   version="1.1"
   inkscape:version="0.48.4 r9939"
   sodipodi:docname="piece_square.svg"
   inkscape:export-filename="/home/thane/Dropbox/DATAJUNK/Knight Banneret/A2.png"
   inkscape:export-xdpi="90"
   inkscape:export-ydpi="90"
   style="enable-background:new">
  <defs
     id="defs4">
    <filter
       inkscape:collect="always"
       id="filter4226"
       color-interpolation-filters="sRGB">
      <feBlend
         inkscape:collect="always"
         mode="multiply"
         in2="BackgroundImage"
         id="feBlend4228" />
    </filter>
    <clipPath
       clipPathUnits="userSpaceOnUse"
       id="clipPath3132">
      <path
         style="fill:#74725d;fill-opacity:1;stroke:none;display:inline;filter:url(#filter4226)"
         d="m 170.5,0.76843258 -98.0625,0.21875 -1.4375,0 -70.00000002,70.00000042 0,0.28125 -0.21875,0.21875 0.21875,99.499997 3.50000002,3.5 66.5,66.46875 0,0.0312 0.03125,0 3.46875,3.46875 0,0.0312 1.40625,0 97.1875,0 1.375,0 0.0312,-0.0312 70,-69.96875 0,-98.593747 0,-1.40625 -3.5,-3.5 -66.5,-66.5000004 -3.5,-3.50000002 -0.28125,0 -0.21875,-0.21875 z"
         id="path3134"
         inkscape:connector-curvature="0" />
    </clipPath>
    <clipPath
       clipPathUnits="userSpaceOnUse"
       id="clipPath3183">
      <path
         style="fill:#74725d;fill-opacity:1;stroke:none;display:inline"
         d="m 0,0 0,5 0,230 0,5 4,0 0,4 5,0 235,0 0,-5 0,-235 -4,0 0,-4 L 5,0 0,0 z"
         id="path3185"
         inkscape:connector-curvature="0" />
    </clipPath>
  </defs>
  <sodipodi:namedview
     id="base"
     pagecolor="#ffffff"
     bordercolor="#666666"
     borderopacity="1.0"
     inkscape:pageopacity="0.0"
     inkscape:pageshadow="2"
     inkscape:zoom="2.8834887"
     inkscape:cx="119.61705"
     inkscape:cy="129.24626"
     inkscape:document-units="px"
     inkscape:current-layer="layer3"
     showgrid="false"
     fit-margin-top="0"
     fit-margin-left="0"
     fit-margin-right="0"
     fit-margin-bottom="0"
     inkscape:window-width="1855"
     inkscape:window-height="1056"
     inkscape:window-x="65"
     inkscape:window-y="24"
     inkscape:window-maximized="1"
     showguides="true"
     inkscape:guide-bbox="true"
     inkscape:object-nodes="true"
     inkscape:snap-page="true">
    <inkscape:grid
       type="xygrid"
       id="grid2985"
       empspacing="5"
       visible="true"
       enabled="true"
       snapvisiblegridlinesonly="true"
       originx="-120px"
       originy="-679.98718px" />
  </sodipodi:namedview>
  <metadata
     id="metadata7">
    <rdf:RDF>
      <cc:Work
         rdf:about="">
        <dc:format>image/svg+xml</dc:format>
        <dc:type
           rdf:resource="http://purl.org/dc/dcmitype/StillImage" />
        <dc:title></dc:title>
      </cc:Work>
    </rdf:RDF>
  </metadata>
  <g
     inkscape:groupmode="layer"
     id="layer2"
     inkscape:label="Square Design"
     style="display:inline"
     sodipodi:insensitive="true"
     transform="translate(-1,-1)">
    <path
       style="fill:#b7ae9b;fill-opacity:1;stroke:none"
       d="m 1,1 0,5 0,230 0,5 5,0 235,0 0,-5 L 241,1 6,1 1,1 z M 6,6 236,6 236,236 6,236 6,6 z m 10,10 c 1.34972,6.07378 4.76808,16.18263 5.71875,21.40625 -4.52963,24.88872 -4.52963,41.86128 0,66.75 -0.95067,5.22362 -2.08778,10.76997 -3.4375,16.84375 1.34717,6.06225 2.48787,11.59746 3.4375,16.8125 -4.53641,24.9133 -4.53641,41.89921 0,66.8125 C 20.76912,209.84004 17.34717,219.93775 16,226 c 6.07378,-1.34972 16.18262,-4.76808 21.40625,-5.71875 24.88871,4.52963 41.86128,4.52963 66.75,0 5.22362,0.95067 10.76997,2.08777 16.84375,3.4375 6.06225,-1.34717 11.59746,-2.48787 16.8125,-3.4375 24.91329,4.53641 41.8992,4.53641 66.8125,0 5.21504,0.94963 15.31275,4.37158 21.375,5.71875 -1.34732,-6.06296 -4.76906,-16.15944 -5.71875,-21.375 4.53685,-24.91489 4.53685,-41.89761 0,-66.8125 0.94969,-5.21556 2.09018,-10.74955 3.4375,-16.8125 -1.34972,-6.07378 -2.48682,-11.62013 -3.4375,-16.84375 2.26481,-12.44436 3.4375,-22.92466 3.4375,-33.375 0,-10.45034 -1.17269,-20.93064 -3.4375,-33.375 C 221.23193,32.18263 224.65028,22.07378 226,16 c -6.06296,1.34732 -16.15944,4.76906 -21.375,5.71875 -24.9149,-4.53685 -41.89761,-4.53685 -66.8125,0 -5.21556,-0.94969 -10.74954,-2.09017 -16.8125,-3.4375 -6.07378,1.34973 -11.62013,2.48682 -16.84375,3.4375 -12.44436,-2.26482 -22.92466,-3.4375 -33.375,-3.4375 -10.45034,0 -20.93065,1.17268 -33.375,3.4375 C 32.18263,20.76807 22.07377,17.34973 16,16 z m 54.78125,6.84375 c 6.03195,0 12.08459,0.4017 18.5,1.15625 -12.83081,1.5091 -24.16919,1.5091 -37,0 6.41541,-0.75455 12.46804,-1.15625 18.5,-1.15625 z m 50.21875,0 c 1.8208,0.40462 3.54613,0.78749 5.28125,1.15625 -1.7338,0.36849 -3.46189,0.7207 -5.28125,1.125 -1.8302,-0.40671 -3.56884,-0.75453 -5.3125,-1.125 1.74366,-0.37048 3.4823,-0.74954 5.3125,-1.15625 z m 50.21875,0 c 6.05023,0 12.09407,0.39712 18.53125,1.15625 -12.87314,1.518 -24.22062,1.518 -37.09375,0 6.43717,-0.75913 12.51227,-1.15625 18.5625,-1.15625 z m -147.75,0.625 c 0.32041,0.0684 0.65023,0.15113 0.96875,0.21875 -0.0458,0.21498 -0.04822,0.44209 -0.09375,0.65625 -0.21416,0.0455 -0.44127,0.04792 -0.65625,0.09375 -0.0676,-0.31853 -0.15038,-0.64834 -0.21875,-0.96875 z m 195.0625,0 c -0.0684,0.32041 -0.15113,0.65022 -0.21875,0.96875 -0.21494,-0.0462 -0.44213,-0.04792 -0.65625,-0.09375 -0.0435,-0.20519 -0.0499,-0.45032 -0.0937,-0.65625 0.32035,-0.0684 0.64656,-0.14946 0.96875,-0.21875 z m -181.125,2.8125 c 24.88871,4.52963 41.86129,4.52963 66.75,0 5.22362,0.95068 10.76997,2.05652 16.84375,3.40625 6.06225,-1.34717 11.59746,-2.45662 16.8125,-3.40625 24.91329,4.53641 41.8992,4.53641 66.8125,0 2.96554,0.54001 6.07249,1.14988 9.28125,1.8125 0.66221,3.21414 1.2719,6.34207 1.8125,9.3125 -4.52963,24.88872 -4.52963,41.86128 0,66.75 -0.95067,5.22362 -2.05653,10.76997 -3.40625,16.84375 1.34717,6.06225 2.45662,11.59746 3.40625,16.8125 -4.53641,24.9133 -4.53641,41.89921 0,66.8125 -0.54001,2.96555 -1.14987,6.07249 -1.8125,9.28125 -3.2086,0.66259 -6.31541,1.27245 -9.28125,1.8125 -24.9149,-4.53685 -41.89761,-4.53685 -66.8125,0 -5.21556,-0.9497 -10.74954,-2.05892 -16.8125,-3.40625 -6.07378,1.34973 -11.62013,2.45557 -16.84375,3.40625 -12.44435,-2.26482 -22.92466,-3.40625 -33.375,-3.40625 -10.45034,0 -20.93065,1.14143 -33.375,3.40625 -2.97043,-0.54061 -6.09837,-1.1503 -9.3125,-1.8125 -0.6626,-3.2086 -1.27245,-6.3154 -1.8125,-9.28125 4.53685,-24.91489 4.53685,-41.89761 0,-66.8125 0.94969,-5.21556 2.05893,-10.74955 3.40625,-16.8125 -1.34972,-6.07378 -2.45557,-11.62013 -3.40625,-16.84375 2.26481,-12.44436 3.40625,-22.92466 3.40625,-33.375 0,-10.45034 -1.14144,-20.93064 -3.40625,-33.375 0.54061,-2.97043 1.1503,-6.09836 1.8125,-9.3125 3.21413,-0.6622 6.34207,-1.27189 9.3125,-1.8125 z M 24,52.28125 c 0.75455,6.41541 1.125,12.46805 1.125,18.5 0,6.03196 -0.37045,12.0846 -1.125,18.5 -1.5091,-12.83081 -1.5091,-24.16918 0,-37 z m 194,0 c 0.75455,6.41541 1.15625,12.46805 1.15625,18.5 0,6.03196 -0.4017,12.0846 -1.15625,18.5 -1.5091,-12.83081 -1.5091,-24.16918 0,-37 z M 24,115.6875 c 0.37048,1.74366 0.71829,3.48229 1.125,5.3125 -0.40462,1.8208 -0.75624,3.54613 -1.125,5.28125 -0.36849,-1.73381 -0.75195,-3.4619 -1.15625,-5.28125 0.40671,-1.83021 0.78577,-3.56884 1.15625,-5.3125 z m 194,0 c 0.37048,1.74366 0.74954,3.48229 1.15625,5.3125 -0.40462,1.8208 -0.78749,3.54613 -1.15625,5.28125 -0.3685,-1.73381 -0.7207,-3.4619 -1.125,-5.28125 0.40671,-1.83021 0.75452,-3.56884 1.125,-5.3125 z M 24,152.65625 c 0.75913,6.43718 1.125,12.51227 1.125,18.5625 0,6.05022 -0.36587,12.09408 -1.125,18.53125 -1.518,-12.87313 -1.518,-24.22061 0,-37.09375 z m 194,0 c 0.75913,6.43718 1.15625,12.51227 1.15625,18.5625 0,6.05022 -0.39712,12.09408 -1.15625,18.53125 -1.518,-12.87313 -1.518,-24.22061 0,-37.09375 z M 70.78125,216.875 c 6.03196,0 12.08459,0.37046 18.5,1.125 -12.83082,1.5091 -24.16918,1.5091 -37,0 6.41541,-0.75454 12.46804,-1.125 18.5,-1.125 z m 50.21875,0 c 1.8208,0.40462 3.54613,0.75624 5.28125,1.125 -1.7338,0.3685 -3.46189,0.75194 -5.28125,1.15625 -1.8302,-0.40672 -3.56884,-0.78577 -5.3125,-1.15625 1.74366,-0.37047 3.4823,-0.71828 5.3125,-1.125 z m 50.21875,0 c 6.05023,0 12.09407,0.36587 18.53125,1.125 -12.87314,1.518 -24.22062,1.518 -37.09375,0 6.43717,-0.75913 12.51227,-1.125 18.5625,-1.125 z m -147.5,0.6875 c 0.20594,0.0438 0.41982,0.0502 0.625,0.0937 0.0458,0.21408 0.04762,0.44139 0.09375,0.65625 -0.31852,0.0677 -0.64834,0.15038 -0.96875,0.21875 0.0693,-0.32231 0.18155,-0.64835 0.25,-0.96875 z m 194.59375,0 c 0.068,0.31842 0.14987,0.64852 0.21875,0.96875 -0.32036,-0.0689 -0.65028,-0.15071 -0.96875,-0.21875 0.0461,-0.21494 0.048,-0.44213 0.0937,-0.65625 0.21407,-0.0457 0.44138,-0.0476 0.65625,-0.0937 z"
       id="rect2992"
       inkscape:connector-curvature="0" />
  </g>
  <g
     inkscape:groupmode="layer"
     id="layer3"
     inkscape:label="Single Arrow"
     style="display:inline"
     sodipodi:insensitive="true"
     transform="translate(-1,-1)">
    <path
       style="fill:#b7ae9b;fill-opacity:1;stroke:none;display:inline"
       d="m 121,50.98718 30,130 -30,-15 -30,15 z"
       id="rect2989"
       inkscape:connector-curvature="0"
       sodipodi:nodetypes="ccccc"
       inkscape:transform-center-y="-5" />
  </g>
</svg>
