# Blender v2.66 (sub 1) OBJ File: 'square_base.blend'
# www.blender.org
mtllib square.mtl
o Cube
v 0.449575 0.452617 0.052051
v 0.452707 0.446607 0.209909
v 0.400000 0.477617 0.052051
v 0.400000 0.471607 0.209909
v 0.477707 0.400000 0.209909
v 0.474575 0.400000 0.052051
v 0.400000 0.400000 0.239250
v 0.400000 0.400000 0.021065
v 0.475000 0.475000 0.163448
v 0.400000 0.500000 0.163448
v 0.500000 0.400000 0.163448
v 0.400000 0.500000 0.092256
v 0.500000 0.400000 0.092256
v 0.475000 0.475000 0.092256
v 0.474575 0.000000 0.052051
v 0.449575 -0.452617 0.052051
v 0.477707 0.000000 0.209909
v 0.452707 -0.446607 0.209909
v 0.400000 0.000000 0.021065
v 0.400000 -0.477617 0.052051
v 0.400000 0.000000 0.239250
v 0.400000 -0.471607 0.209909
v 0.477707 -0.400000 0.209909
v 0.474575 -0.400000 0.052051
v 0.400000 -0.400000 0.239250
v 0.400000 -0.400000 0.021065
v 0.500000 0.000000 0.163448
v 0.475000 -0.475000 0.163448
v 0.000000 0.500000 0.127852
v 0.400000 -0.500000 0.163448
v 0.500000 -0.400000 0.163448
v 0.500000 0.000000 0.092256
v 0.400000 -0.500000 0.092256
v 0.500000 0.400000 0.127852
v 0.500000 -0.400000 0.092256
v 0.475000 -0.475000 0.092256
v 0.000000 0.477617 0.052051
v -0.449575 0.452617 0.052051
v 0.000000 0.471607 0.209909
v -0.452707 0.446607 0.209909
v -0.400000 0.477617 0.052051
v -0.400000 0.471607 0.209909
v 0.000000 0.400000 0.239250
v -0.477707 0.400000 0.209909
v 0.000000 0.400000 0.021065
v -0.474575 0.400000 0.052051
v -0.400000 0.400000 0.239250
v -0.400000 0.400000 0.021065
v 0.000000 0.500000 0.163448
v -0.475000 0.475000 0.163448
v -0.400000 0.500000 0.163448
v -0.500000 0.400000 0.163448
v -0.500000 0.000000 0.127852
v 0.475000 -0.475000 0.127852
v -0.400000 0.500000 0.092256
v -0.500000 0.400000 0.092256
v -0.475000 0.475000 0.092256
v 0.000000 0.500000 0.092256
v -0.474575 0.000000 0.052051
v 0.000000 0.000000 0.021065
v 0.000000 -0.477617 0.052051
v -0.449575 -0.452617 0.052051
v -0.477707 0.000000 0.209909
v 0.000000 0.000000 0.239250
v 0.000000 -0.471607 0.209909
v -0.452707 -0.446607 0.209909
v -0.400000 0.000000 0.021065
v -0.400000 -0.477617 0.052051
v -0.400000 0.000000 0.239250
v -0.400000 -0.471607 0.209909
v 0.000000 -0.400000 0.239250
v -0.477707 -0.400000 0.209909
v 0.000000 -0.400000 0.021065
v -0.474575 -0.400000 0.052051
v -0.400000 -0.400000 0.239250
v -0.400000 -0.400000 0.021065
v -0.500000 0.000000 0.163448
v 0.000000 -0.500000 0.127852
v 0.000000 -0.500000 0.163448
v -0.475000 -0.475000 0.163448
v 0.400000 0.500000 0.127852
v -0.400000 -0.500000 0.163448
v -0.500000 -0.400000 0.163448
v 0.500000 -0.400000 0.127852
v -0.500000 0.000000 0.092256
v 0.400000 -0.500000 0.127852
v -0.400000 -0.500000 0.092256
v 0.500000 0.000000 0.127852
v -0.500000 -0.400000 0.092256
v -0.475000 -0.475000 0.092256
v 0.000000 -0.500000 0.092256
v 0.475000 0.475000 0.127852
v -0.400000 0.500000 0.127852
v -0.500000 0.400000 0.127852
v -0.475000 0.475000 0.127852
v -0.400000 -0.500000 0.127852
v -0.500000 -0.400000 0.127852
v -0.475000 -0.475000 0.127852
vt 0.423668 0.422248
vt 0.420719 0.251766
vt 0.460855 0.418226
vt 0.579138 0.422762
vt 0.545108 0.419477
vt 0.547181 0.251967
vt 0.521308 0.418987
vt 0.551763 0.445700
vt 0.419946 0.480825
vt 0.420363 0.458462
vt 0.447445 0.451542
vt 0.582882 0.459085
vt 0.559644 0.452254
vt 0.523681 0.251929
vt 0.251573 0.480709
vt 0.251567 0.457821
vt 0.251559 0.422316
vt 0.251520 0.251501
vt 0.749642 0.421387
vt 0.580878 0.252020
vt 0.749517 0.457769
vt 0.502381 0.419491
vt 0.525258 0.456746
vt 0.582408 0.481879
vt 0.501730 0.251894
vt 0.749439 0.480650
vt 0.420813 0.500262
vt 0.459182 0.475904
vt 0.482755 0.418147
vt 0.454099 0.443700
vt 0.251578 0.502931
vt 0.456991 0.251824
vt 0.479541 0.251859
vt 0.079450 0.422328
vt 0.042105 0.418465
vt 0.081714 0.251235
vt 0.920135 0.423931
vt 0.920184 0.252561
vt 0.954079 0.252614
vt 0.978156 0.420796
vt 0.973753 0.458604
vt 0.947312 0.447225
vt 0.083200 0.480902
vt 0.043962 0.475999
vt 0.055688 0.451633
vt 0.049028 0.444041
vt 0.954279 0.421015
vt 0.022492 0.251143
vt 0.020089 0.418480
vt 0.000240 0.419920
vt 0.977757 0.252652
vt 0.082773 0.458540
vt 0.750220 0.252290
vt 0.997121 0.421528
vt 0.992006 0.461299
vt 0.916142 0.460229
vt 0.939427 0.453557
vt 0.916459 0.483025
vt 0.025739 0.457822
vt 0.007252 0.460980
vt 0.999929 0.252687
vt 0.082342 0.500339
vt 0.041127 0.494871
vt 0.749362 0.502934
vt 0.581062 0.501254
vt 0.045233 0.251178
vt 0.424205 0.081293
vt 0.461381 0.085432
vt 0.579682 0.081274
vt 0.521839 0.084863
vt 0.525911 0.047116
vt 0.545641 0.084450
vt 0.420665 0.022704
vt 0.459886 0.027748
vt 0.421012 0.045068
vt 0.454704 0.059935
vt 0.552381 0.058248
vt 0.252291 0.022293
vt 0.252214 0.045180
vt 0.252095 0.080686
vt 0.750180 0.083194
vt 0.750171 0.046811
vt 0.583542 0.044963
vt 0.502913 0.084299
vt 0.507680 0.044581
vt 0.560282 0.051720
vt 0.545251 0.027200
vt 0.750166 0.023930
vt 0.421593 0.003270
vt 0.462789 0.008886
vt 0.477982 0.046477
vt 0.252365 0.000071
vt 0.750161 0.001646
vt 0.917191 0.022087
vt 0.079986 0.080135
vt 0.042628 0.083881
vt 0.920679 0.081192
vt 0.954811 0.084217
vt 0.918466 0.002707
vt 0.955084 0.027101
vt 0.000071 0.251107
vt 0.000768 0.082296
vt 0.978686 0.084511
vt 0.974404 0.046693
vt 0.083920 0.021573
vt 0.083422 0.043934
vt 0.044667 0.026352
vt 0.056315 0.050756
vt 0.916801 0.044883
vt 0.940065 0.051628
vt 0.541509 0.494535
vt 0.020612 0.083798
vt 0.026385 0.044473
vt 0.583141 0.022168
vt 0.581856 0.002788
vt 0.997652 0.083839
vt 0.992663 0.044055
vt 0.483282 0.085579
vt 0.083122 0.002133
vt 0.041891 0.007472
vt 0.495683 0.460246
vt 0.917673 0.502410
vt 0.954368 0.478132
vt 0.957271 0.495962
vt 0.448074 0.052073
vt 0.947928 0.057986
vt 0.049632 0.058327
vt 0.507019 0.459223
vt 0.544535 0.476726
vt 0.462026 0.494774
vt 0.477332 0.457230
vt 0.958044 0.009281
vt 0.007908 0.041258
vt 0.542282 0.009381
vt 0.496344 0.043519
vn 0.169866 0.162694 -0.971923
vn 0.000000 0.188757 -0.981994
vn 0.165166 0.674123 -0.719871
vn 0.154820 0.169103 0.973357
vn 0.153630 0.662038 0.733543
vn 0.000000 0.648457 0.761223
vn 0.162236 0.948485 0.272011
vn 0.475661 0.468642 0.744346
vn 0.946287 0.162694 -0.279336
vn 0.657796 0.153050 -0.737449
vn 0.457686 0.463057 -0.758995
vn 0.689901 0.178076 0.701621
vn 0.000000 0.962615 0.270821
vn 0.960509 0.000000 -0.278207
vn 0.644459 0.000000 -0.764611
vn 0.195624 0.000000 -0.980651
vn 0.000000 0.000000 -1.000000
vn 0.179510 0.000000 0.983734
vn 0.000000 0.193213 0.981140
vn 0.675924 0.000000 0.736961
vn 0.160161 0.987060 0.000000
vn 0.670400 0.679495 0.297952
vn 0.958068 0.169561 0.230842
vn 0.000000 1.000000 0.000000
vn 0.975066 0.000000 0.221809
vn 0.987060 0.160161 0.000000
vn 0.673574 0.668722 -0.314707
vn 0.166662 0.952055 -0.256508
vn 1.000000 0.000000 0.000000
vn 0.000000 0.660360 -0.750908
vn 0.000000 0.967895 -0.251259
vn 0.169866 -0.162694 -0.971923
vn 0.165166 -0.674123 -0.719871
vn 0.000000 -0.188757 -0.981994
vn 0.154820 -0.169103 0.973357
vn 0.000000 -0.193213 0.981140
vn 0.000000 -0.648457 0.761223
vn 0.162236 -0.948485 0.272011
vn 0.670400 -0.679495 0.297952
vn 0.475661 -0.468642 0.744346
vn 0.946287 -0.162694 -0.279336
vn 0.673574 -0.668722 -0.314707
vn 0.457686 -0.463057 -0.758995
vn 0.153630 -0.662038 0.733543
vn 0.000000 -0.967895 -0.251259
vn 0.166662 -0.952055 -0.256508
vn 0.160161 -0.987060 0.000000
vn 0.000000 -0.962615 0.270821
vn 0.657796 -0.153050 -0.737449
vn 0.000000 0.000000 1.000000
vn 0.707083 -0.707083 0.000000
vn 0.689901 -0.178076 0.701621
vn 0.958068 -0.169561 0.230842
vn 0.000000 -1.000000 0.000000
vn 0.987060 -0.160161 0.000000
vn 0.000000 -0.660360 -0.750908
vn -0.169866 0.162694 -0.971923
vn -0.133396 0.664479 -0.735282
vn -0.154820 0.169103 0.973357
vn -0.151219 0.953276 0.261513
vn -0.673513 0.686789 0.273171
vn -0.129460 0.653554 0.745689
vn -0.951384 0.150853 -0.268502
vn -0.679800 0.672842 -0.291696
vn -0.649220 0.127506 -0.749809
vn -0.443800 0.440413 -0.780389
vn -0.446974 0.456954 0.768975
vn -0.960509 0.000000 -0.278207
vn -0.644459 0.000000 -0.764611
vn -0.195624 0.000000 -0.980651
vn -0.179510 0.000000 0.983734
vn -0.675924 0.000000 0.736961
vn -0.679373 0.141392 0.719993
vn -0.160161 0.987060 0.000000
vn -0.707083 0.707083 0.000000
vn -0.975066 0.000000 0.221809
vn -0.987060 0.160161 0.000000
vn -0.999969 0.000000 0.000000
vn -0.964476 -0.153447 0.214881
vn -0.169866 -0.162694 -0.971923
vn -0.133396 -0.664479 -0.735282
vn -0.154820 -0.169103 0.973357
vn -0.129460 -0.653554 0.745689
vn -0.987060 -0.160161 0.000000
vn -0.673513 -0.686789 0.273171
vn -0.160161 -0.987060 0.000000
vn -0.151219 -0.953276 0.261513
vn -0.951384 -0.150853 -0.268502
vn -0.649220 -0.127506 -0.749809
vn -0.679800 -0.672842 -0.291696
vn -0.443800 -0.440413 -0.780389
vn -0.679373 -0.141392 0.719993
vn -0.446974 -0.456954 0.768975
vn 0.707083 0.707083 0.000000
vn -0.152135 -0.958007 -0.242927
vn -0.964476 0.153447 0.214881
vn -0.707083 -0.707083 0.000000
vn -0.152135 0.958007 -0.242927
usemtl Material
s 1
f 8/1/1 45/2/2 3/3/3
f 7/4/4 4/5/5 39/6/6
f 10/7/7 4/5/5 2/8/8
f 13/9/9 6/10/10 1/11/11
f 6/10/10 8/1/1 1/11/11
f 7/4/4 5/12/12 2/13/8
f 49/14/13 39/6/6 4/5/5
f 32/15/14 15/16/15 6/10/10
f 15/16/15 19/17/16 8/1/1
f 19/17/16 60/18/17 8/1/1
f 21/19/18 7/4/4 43/20/19
f 17/21/20 5/12/12 7/4/4
f 81/22/21 10/7/7 9/23/22
f 5/12/12 11/24/23 2/13/8
f 29/25/24 49/14/13 10/7/7
f 17/21/20 27/26/25 11/24/23
f 34/27/26 13/9/9 14/28/27
f 3/3/3 12/29/28 1/30/11
f 88/31/29 32/15/14 13/9/9
f 37/32/30 58/33/31 3/3/3
f 26/34/32 20/35/33 73/36/34
f 25/37/35 71/38/36 65/39/37
f 30/40/38 28/41/39 18/42/40
f 35/43/41 36/44/42 16/45/43
f 20/35/33 26/34/32 16/46/43
f 25/37/35 22/47/44 18/42/40
f 91/48/45 33/49/46 86/50/47
f 79/51/48 30/40/38 22/47/44
f 32/15/14 35/43/41 24/52/49
f 15/16/15 24/52/49 26/34/32
f 19/17/16 26/34/32 60/18/17
f 21/19/18 64/53/50 71/38/36
f 17/21/20 21/19/18 25/37/35
f 86/54/47 54/55/51 28/41/39
f 23/56/52 18/57/40 31/58/53
f 33/49/46 36/59/42 54/60/51
f 78/61/54 86/54/47 30/40/38
f 17/21/20 23/56/52 31/58/53
f 84/62/55 54/63/51 36/44/42
f 20/35/33 16/46/43 33/49/46
f 88/31/29 84/62/55 35/43/41
f 27/26/25 88/64/29 34/65/26
f 61/66/56 20/35/33 91/48/45
f 48/67/57 41/68/58 45/2/2
f 47/69/59 43/20/19 39/6/6
f 51/70/60 50/71/61 42/72/62
f 56/73/63 57/74/64 46/75/65
f 41/68/58 48/67/57 38/76/66
f 47/69/59 42/72/62 40/77/67
f 49/14/13 51/70/60 42/72/62
f 85/78/68 56/73/63 59/79/69
f 59/79/69 46/75/65 67/80/70
f 67/80/70 48/67/57 60/18/17
f 69/81/71 64/53/50 43/20/19
f 63/82/72 69/81/71 44/83/73
f 93/84/74 95/85/75 51/70/60
f 44/83/73 40/86/67 50/87/61
f 29/25/24 93/84/74 51/70/60
f 63/82/72 44/83/73 77/88/76
f 94/89/77 95/90/75 56/73/63
f 41/68/58 38/76/66 57/91/64
f 53/92/78 94/89/77 85/78/68
f 37/32/30 41/68/58 58/33/31
f 77/88/76 53/93/78 83/94/79
f 76/95/80 73/36/34 68/96/81
f 75/97/82 70/98/83 65/39/37
f 83/94/79 97/99/84 80/100/85
f 91/48/45 78/101/54 96/102/86
f 82/103/87 70/98/83 80/104/85
f 89/105/88 74/106/89 90/107/90
f 74/106/89 76/95/80 62/108/91
f 75/97/82 72/109/92 66/110/93
f 11/24/23 34/65/26 92/111/94
f 79/51/48 65/39/37 70/98/83
f 85/78/68 59/79/69 89/105/88
f 59/79/69 67/80/70 74/106/89
f 67/80/70 60/18/17 76/95/80
f 69/81/71 75/97/82 71/38/36
f 87/112/95 96/102/86 90/113/90
f 63/82/72 72/109/92 69/81/71
f 77/88/76 52/114/96 53/93/78
f 52/114/96 50/87/61 94/115/77
f 96/116/86 82/103/87 98/117/97
f 72/109/92 83/94/79 80/100/85
f 58/33/31 29/25/24 81/22/21
f 78/61/54 79/51/48 82/103/87
f 63/82/72 77/88/76 72/109/92
f 58/33/31 55/118/98 93/84/74
f 97/119/84 89/105/88 98/120/97
f 55/118/98 57/91/64 93/84/74
f 68/96/81 87/112/95 90/113/90
f 53/92/78 85/78/68 97/119/84
f 12/29/28 81/22/21 92/121/94
f 61/66/56 91/48/45 68/96/81
f 27/26/25 31/58/53 84/122/55
f 31/58/53 28/123/39 54/124/51
f 8/1/1 3/3/3 1/30/11
f 4/5/5 7/4/4 2/8/8
f 44/83/73 47/69/59 40/86/67
f 48/67/57 46/75/65 38/125/66
f 70/98/83 75/97/82 66/126/93
f 76/95/80 68/96/81 62/127/91
f 23/56/52 25/37/35 18/57/40
f 26/34/32 24/52/49 16/45/43
f 45/2/2 37/32/30 3/3/3
f 43/20/19 7/4/4 39/6/6
f 9/23/22 10/7/7 2/8/8
f 14/28/27 13/9/9 1/11/11
f 10/7/7 49/14/13 4/5/5
f 13/9/9 32/15/14 6/10/10
f 6/10/10 15/16/15 8/1/1
f 60/18/17 45/2/2 8/1/1
f 64/53/50 21/19/18 43/20/19
f 21/19/18 17/21/20 7/4/4
f 92/128/94 81/22/21 9/23/22
f 11/24/23 9/129/22 2/13/8
f 81/22/21 29/25/24 10/7/7
f 5/12/12 17/21/20 11/24/23
f 92/130/94 34/27/26 14/28/27
f 12/29/28 14/131/27 1/30/11
f 34/27/26 88/31/29 13/9/9
f 58/33/31 12/29/28 3/3/3
f 20/35/33 61/66/56 73/36/34
f 22/47/44 25/37/35 65/39/37
f 22/47/44 30/40/38 18/42/40
f 24/52/49 35/43/41 16/45/43
f 78/101/54 91/48/45 86/50/47
f 65/39/37 79/51/48 22/47/44
f 15/16/15 32/15/14 24/52/49
f 19/17/16 15/16/15 26/34/32
f 26/34/32 73/36/34 60/18/17
f 25/37/35 21/19/18 71/38/36
f 23/56/52 17/21/20 25/37/35
f 30/40/38 86/54/47 28/41/39
f 18/57/40 28/123/39 31/58/53
f 86/50/47 33/49/46 54/60/51
f 79/51/48 78/61/54 30/40/38
f 27/26/25 17/21/20 31/58/53
f 35/43/41 84/62/55 36/44/42
f 16/46/43 36/59/42 33/49/46
f 32/15/14 88/31/29 35/43/41
f 11/24/23 27/26/25 34/65/26
f 20/35/33 33/49/46 91/48/45
f 41/68/58 37/32/30 45/2/2
f 42/72/62 47/69/59 39/6/6
f 50/71/61 40/77/67 42/72/62
f 57/74/64 38/125/66 46/75/65
f 39/6/6 49/14/13 42/72/62
f 56/73/63 46/75/65 59/79/69
f 46/75/65 48/67/57 67/80/70
f 48/67/57 45/2/2 60/18/17
f 47/69/59 69/81/71 43/20/19
f 69/81/71 47/69/59 44/83/73
f 95/85/75 50/71/61 51/70/60
f 52/114/96 44/83/73 50/87/61
f 49/14/13 29/25/24 51/70/60
f 44/83/73 52/114/96 77/88/76
f 95/90/75 57/74/64 56/73/63
f 55/118/98 41/68/58 57/91/64
f 94/89/77 56/73/63 85/78/68
f 41/68/58 55/118/98 58/33/31
f 53/93/78 97/99/84 83/94/79
f 73/36/34 61/66/56 68/96/81
f 71/38/36 75/97/82 65/39/37
f 97/99/84 98/132/97 80/100/85
f 87/112/95 91/48/45 96/102/86
f 70/98/83 66/126/93 80/104/85
f 74/106/89 62/108/91 90/107/90
f 9/129/22 11/24/23 92/111/94
f 82/103/87 79/51/48 70/98/83
f 59/79/69 74/106/89 89/105/88
f 67/80/70 76/95/80 74/106/89
f 60/18/17 73/36/34 76/95/80
f 64/53/50 69/81/71 71/38/36
f 96/102/86 98/133/97 90/113/90
f 72/109/92 75/97/82 69/81/71
f 52/114/96 94/115/77 53/93/78
f 50/87/61 95/134/75 94/115/77
f 82/103/87 80/104/85 98/117/97
f 66/110/93 72/109/92 80/100/85
f 12/29/28 58/33/31 81/22/21
f 96/116/86 78/61/54 82/103/87
f 77/88/76 83/94/79 72/109/92
f 29/25/24 58/33/31 93/84/74
f 89/105/88 90/107/90 98/120/97
f 57/91/64 95/135/75 93/84/74
f 62/127/91 68/96/81 90/113/90
f 85/78/68 89/105/88 97/119/84
f 14/131/27 12/29/28 92/121/94
f 91/48/45 87/112/95 68/96/81
f 88/64/29 27/26/25 84/122/55
f 84/122/55 31/58/53 54/124/51
