# Blender v2.66 (sub 1) OBJ File: 'octagonal_base.blend'
# www.blender.org
mtllib A1.mtl
o Cube
v -0.472255 0.193560 0.052051
v -0.466582 0.192427 0.207369
v -0.482948 0.146205 0.052051
v -0.478506 0.148045 0.209909
v -0.445040 0.237852 0.209909
v -0.444081 0.235537 0.052051
v -0.418189 0.173027 0.239250
v -0.418189 0.173027 0.021065
v -0.496583 0.205500 0.163448
v -0.499491 0.139352 0.163448
v -0.451864 0.254329 0.163448
v -0.499491 0.139352 0.092256
v -0.451864 0.254329 0.092256
v -0.496583 0.205500 0.092256
v -0.451864 0.254329 0.127852
v -0.499491 0.139352 0.127852
v -0.496583 0.205500 0.127852
v -0.483020 -0.146486 0.209909
v -0.480704 -0.147445 0.052051
v -0.499496 -0.139661 0.163448
v -0.499496 -0.139661 0.092256
v -0.499496 -0.139661 0.127852
v 0.444836 0.237770 0.052051
v 0.442996 0.233328 0.209909
v 0.451688 0.254313 0.163448
v 0.451688 0.254313 0.092256
v 0.451688 0.254313 0.127852
v 0.196089 0.473018 0.052051
v 0.195481 0.467562 0.209909
v 0.146275 0.482693 0.052051
v 0.148115 0.478250 0.209909
v 0.237923 0.444784 0.209909
v 0.235608 0.443825 0.052051
v 0.173098 0.417934 0.239250
v 0.173098 0.417934 0.021065
v 0.205571 0.496327 0.163448
v 0.139423 0.499236 0.163448
v 0.254400 0.451609 0.163448
v 0.139423 0.499236 0.092256
v 0.254400 0.451609 0.092256
v 0.205571 0.496327 0.092256
v 0.254400 0.451609 0.127852
v 0.139423 0.499236 0.127852
v 0.205571 0.496327 0.127852
v -0.196979 0.470690 0.052051
v -0.191578 0.471165 0.209909
v -0.238025 0.444765 0.052051
v -0.233583 0.442925 0.209909
v -0.146415 0.482765 0.209909
v -0.147375 0.480449 0.052051
v -0.173268 0.417940 0.239250
v -0.173268 0.417940 0.021065
v -0.205738 0.496334 0.163448
v -0.254569 0.451618 0.163448
v -0.139590 0.499241 0.163448
v -0.254569 0.451618 0.092256
v -0.139590 0.499241 0.092256
v -0.205738 0.496334 0.092256
v -0.139590 0.499241 0.127852
v -0.254569 0.451618 0.127852
v -0.205738 0.496334 0.127852
v -0.196995 -0.471009 0.052051
v -0.193785 -0.466196 0.207369
v -0.238041 -0.445083 0.052051
v -0.233598 -0.443243 0.209909
v -0.146432 -0.483085 0.209909
v -0.147391 -0.480770 0.052051
v -0.173282 -0.418260 0.239250
v -0.173282 -0.418260 0.021065
v -0.205755 -0.496653 0.163448
v -0.254584 -0.451935 0.163448
v -0.139607 -0.499562 0.163448
v -0.254584 -0.451935 0.092256
v -0.139607 -0.499562 0.092256
v -0.205755 -0.496653 0.092256
v -0.139607 -0.499562 0.127852
v -0.254584 -0.451935 0.127852
v -0.205755 -0.496653 0.127852
v -0.471604 -0.195460 0.052051
v -0.470100 -0.194837 0.209909
v -0.445048 -0.238163 0.209909
v -0.444089 -0.235847 0.052051
v -0.418195 -0.173338 0.239250
v -0.418195 -0.173338 0.021065
v -0.496590 -0.205809 0.163448
v -0.451873 -0.254639 0.163448
v -0.451873 -0.254639 0.092256
v -0.496590 -0.205809 0.092256
v -0.451873 -0.254639 0.127852
v -0.496590 -0.205809 0.127852
v 0.471419 0.195134 0.052051
v 0.469915 0.194511 0.209909
v 0.482768 0.146188 0.052051
v 0.478326 0.148028 0.209909
v 0.418011 0.173013 0.239250
v 0.418011 0.173013 0.021065
v 0.496405 0.205483 0.163448
v 0.499312 0.139335 0.163448
v 0.499312 0.139335 0.092256
v 0.496405 0.205483 0.092256
v 0.499312 0.139335 0.127852
v 0.496405 0.205483 0.127852
v 0.473211 -0.196048 0.052051
v 0.468924 -0.192620 0.209909
v 0.444827 -0.238111 0.052051
v 0.442987 -0.233669 0.209909
v 0.482830 -0.146503 0.209909
v 0.480515 -0.147462 0.052051
v 0.418005 -0.173353 0.239250
v 0.418005 -0.173353 0.021065
v 0.496398 -0.205826 0.163448
v 0.451680 -0.254655 0.163448
v 0.499307 -0.139678 0.163448
v 0.451680 -0.254655 0.092256
v 0.499307 -0.139678 0.092256
v 0.496398 -0.205826 0.092256
v 0.499307 -0.139678 0.127852
v 0.451680 -0.254655 0.127852
v 0.496398 -0.205826 0.127852
v 0.193614 -0.472333 0.052051
v 0.197770 -0.468850 0.209909
v 0.146258 -0.483024 0.052051
v 0.148099 -0.478581 0.209909
v 0.237908 -0.445119 0.209909
v 0.235592 -0.444159 0.052051
v 0.173083 -0.418266 0.239250
v 0.173083 -0.418266 0.021065
v 0.205553 -0.496661 0.163448
v 0.139406 -0.499567 0.163448
v 0.254384 -0.451944 0.163448
v 0.139406 -0.499567 0.092256
v 0.254384 -0.451944 0.092256
v 0.205553 -0.496661 0.092256
v 0.254384 -0.451944 0.127852
v 0.139406 -0.499567 0.127852
v 0.205553 -0.496661 0.127852
vt 0.446609 0.356800
vt 0.357378 0.446762
vt 0.326534 0.434252
vt 0.460019 0.375368
vt 0.374036 0.460215
vt 0.471463 0.386526
vt 0.384942 0.471871
vt 0.617085 0.471331
vt 0.531941 0.384934
vt 0.628202 0.459943
vt 0.543372 0.373963
vt 0.644356 0.448462
vt 0.567994 0.327921
vt 0.674730 0.435376
vt 0.434349 0.175824
vt 0.464012 0.187721
vt 0.464668 0.314329
vt 0.486039 0.312212
vt 0.486547 0.191315
vt 0.502520 0.191120
vt 0.501860 0.312590
vt 0.517811 0.312425
vt 0.518387 0.191506
vt 0.537313 0.188830
vt 0.537320 0.315724
vt 0.568502 0.176466
vt 0.327465 0.068395
vt 0.356800 0.055748
vt 0.447097 0.145079
vt 0.460490 0.128268
vt 0.375346 0.042386
vt 0.386542 0.030955
vt 0.472069 0.117363
vt 0.543910 0.129948
vt 0.532552 0.118750
vt 0.619005 0.033455
vt 0.629916 0.044980
vt 0.645131 0.056503
vt 0.675955 0.069730
vt 0.174991 0.433866
vt 0.314529 0.463809
vt 0.311137 0.486295
vt 0.190207 0.486044
vt 0.311485 0.502280
vt 0.189839 0.501996
vt 0.810848 0.502076
vt 0.689550 0.501183
vt 0.810663 0.486162
vt 0.689876 0.485343
vt 0.813977 0.466618
vt 0.826186 0.435884
vt 0.433964 0.327368
vt 0.340305 0.042712
vt 0.353696 0.021909
vt 0.640762 0.013441
vt 0.651522 0.025137
vt 0.662880 0.043596
vt 0.458690 0.162561
vt 0.460832 0.166360
vt 0.480284 0.150070
vt 0.492083 0.139311
vt 0.523456 0.151384
vt 0.555342 0.146158
vt 0.541447 0.162934
vt 0.540186 0.166829
vt 0.519509 0.162201
vt 0.503639 0.161600
vt 0.485601 0.161520
vt 0.461694 0.334474
vt 0.460427 0.338946
vt 0.484930 0.341334
vt 0.480482 0.353646
vt 0.492208 0.364775
vt 0.523496 0.352653
vt 0.502568 0.342477
vt 0.540164 0.337923
vt 0.555057 0.358930
vt 0.542168 0.342048
vt 0.339077 0.458799
vt 0.334717 0.460881
vt 0.352017 0.479886
vt 0.340975 0.485005
vt 0.341604 0.501201
vt 0.660754 0.484328
vt 0.638703 0.491944
vt 0.662074 0.462168
vt 0.687509 0.466450
vt 0.666458 0.463626
vt 0.187683 0.464663
vt 0.166168 0.460865
vt 0.160750 0.484808
vt 0.840702 0.501384
vt 0.835467 0.463989
vt 0.038681 0.186612
vt 0.068493 0.174893
vt 0.068107 0.326436
vt 0.016052 0.190144
vt 0.016238 0.310939
vt 0.000071 0.189860
vt 0.000282 0.311389
vt 0.999929 0.314253
vt 0.984016 0.313955
vt 0.999853 0.192952
vt 0.964454 0.317129
vt 0.984011 0.193172
vt 0.934147 0.177691
vt 0.965135 0.190678
vt 0.175923 0.068009
vt 0.056161 0.143899
vt 0.042631 0.127221
vt 0.128191 0.041811
vt 0.031234 0.116243
vt 0.958987 0.131415
vt 0.873648 0.045743
vt 0.884671 0.034324
vt 0.858296 0.057132
vt 0.947416 0.147466
vt 0.188805 0.037320
vt 0.191331 0.015975
vt 0.312267 0.016069
vt 0.190935 0.000074
vt 0.812243 0.019852
vt 0.691343 0.019776
vt 0.691016 0.003909
vt 0.688607 0.038665
vt 0.815491 0.039420
vt 0.827411 0.070237
vt 0.144175 0.446511
vt 0.055546 0.355761
vt 0.041951 0.373991
vt 0.127204 0.459759
vt 0.030346 0.384988
vt 0.116126 0.471243
vt 0.883595 0.472230
vt 0.872550 0.460771
vt 0.969313 0.386400
vt 0.856464 0.449187
vt 0.957955 0.375353
vt 0.933641 0.329147
vt 0.946370 0.360242
vt 0.315817 0.038650
vt 0.336686 0.041202
vt 0.342050 0.017050
vt 0.312513 0.000071
vt 0.342535 0.000894
vt 0.662028 0.020827
vt 0.661472 0.004943
vt 0.666907 0.041944
vt 0.168225 0.041379
vt 0.146599 0.055298
vt 0.164017 0.042529
vt 0.161911 0.017245
vt 0.161257 0.001290
vt 0.812463 0.003903
vt 0.842313 0.004674
vt 0.841859 0.020745
vt 0.837164 0.041603
vt 0.840797 0.043489
vt 0.852265 0.025672
vt 0.863140 0.014096
vt 0.117092 0.030322
vt 0.138978 0.009715
vt 0.150032 0.021522
vt 0.043935 0.160184
vt 0.041649 0.164232
vt 0.017094 0.160320
vt 0.022714 0.148496
vt 0.011173 0.137711
vt 0.000936 0.159815
vt 0.983191 0.164043
vt 0.998984 0.163576
vt 0.970459 0.120330
vt 0.990945 0.142103
vt 0.979192 0.153101
vt 0.962452 0.169609
vt 0.960983 0.165266
vt 0.041837 0.334789
vt 0.037518 0.313315
vt 0.043425 0.339354
vt 0.021877 0.351877
vt 0.017747 0.340427
vt 0.009924 0.362824
vt 0.977973 0.354176
vt 0.999019 0.344110
vt 0.982955 0.343580
vt 0.961469 0.339329
vt 0.959372 0.343446
vt 0.162010 0.459131
vt 0.148805 0.479824
vt 0.861858 0.492705
vt 0.850869 0.480982
vt 0.839320 0.462409
vt 0.364837 0.010198
vt 0.511844 0.140264
vt 0.501768 0.161070
vt 0.500714 0.341950
vt 0.511927 0.363413
vt 0.518658 0.342051
vt 0.362743 0.491821
vt 0.660180 0.500117
vt 0.649765 0.480285
vt 0.160104 0.500794
vt 0.840290 0.485321
vt 0.001720 0.341200
vt 0.989471 0.365013
vt 0.137899 0.491530
vn -0.467696 0.570757 0.674886
vn -0.634266 0.438765 0.636525
vn -0.262154 0.102817 0.959502
vn -0.664571 0.713981 0.220344
vn -0.727561 0.656606 0.198737
vn -0.691366 0.722465 0.000000
vn -0.722434 0.691397 0.000000
vn -0.713584 0.662709 -0.227058
vn -0.680410 0.706839 -0.193396
vn -0.569384 0.466536 -0.676809
vn -0.102268 0.254250 -0.961699
vn -0.252113 0.107456 -0.961699
vn 0.098178 0.251106 0.962951
vn 0.056673 0.717978 0.693747
vn -0.055940 0.736534 0.674062
vn -0.020661 0.985565 0.167852
vn 0.023896 0.978332 0.205573
vn 0.021973 0.999756 0.000000
vn -0.021943 0.999756 0.000000
vn -0.035981 0.973205 -0.227058
vn 0.018677 0.980926 -0.193396
vn 0.040620 0.727897 -0.684469
vn -0.072695 0.732505 -0.676809
vn 0.105594 0.249611 -0.962554
vn 0.250496 0.103732 0.962523
vn 0.542558 0.474319 0.693258
vn 0.474807 0.565142 0.674612
vn 0.682272 0.711509 0.167852
vn 0.708701 0.674856 0.205573
vn 0.722465 0.691366 0.000000
vn 0.691397 0.722434 0.000000
vn 0.675039 0.706229 -0.213263
vn 0.708274 0.679281 -0.191992
vn 0.549058 0.478866 -0.684957
vn 0.250893 0.103916 -0.962401
vn -0.242225 -0.100314 0.964995
vn -0.737510 0.114231 0.665578
vn -0.972900 0.042909 0.227119
vn -0.980987 -0.039552 0.189886
vn -0.999756 0.021973 0.000000
vn -0.999756 -0.021943 0.000000
vn -0.973388 -0.034974 -0.226356
vn -0.980926 0.018677 -0.193396
vn -0.732017 -0.070009 -0.677664
vn -0.255257 -0.105716 -0.961058
vn -0.108371 0.243995 0.963683
vn 0.646413 0.267739 0.714438
vn 0.898282 0.372051 0.233711
vn 0.923856 0.382641 0.000000
vn 0.896817 0.371441 -0.240181
vn 0.632160 0.261818 -0.729209
vn 0.241768 0.643452 0.726279
vn 0.364666 0.901822 0.231697
vn 0.382672 0.923856 0.000000
vn 0.375774 0.896084 -0.236244
vn 0.480239 0.534379 -0.695517
vn 0.281137 0.638081 -0.716788
vn -0.305704 0.638356 0.706412
vn -0.391736 0.887906 0.241066
vn -0.382641 0.923856 0.000000
vn -0.352184 0.899258 -0.259316
vn -0.238319 0.656606 -0.715567
vn -0.481521 0.546739 -0.684957
vn -0.683401 0.263283 0.680898
vn -0.882168 0.366283 0.295938
vn -0.923856 0.382672 0.000000
vn -0.884915 0.386853 -0.259316
vn -0.632832 0.295755 -0.715567
vn -0.727073 0.046113 -0.684957
vn -0.757012 -0.094119 0.646535
vn -0.674581 -0.279397 0.683248
vn -0.892453 -0.369640 0.258492
vn -0.923856 -0.382641 0.000000
vn -0.658620 -0.272774 -0.701254
vn 0.046236 -0.718772 0.693686
vn 0.095859 -0.249184 0.963683
vn -0.112674 -0.258065 0.959502
vn 0.020295 -0.977813 0.208411
vn -0.050172 -0.978759 0.198737
vn 0.021943 -0.999756 0.000000
vn -0.021973 -0.999756 0.000000
vn -0.036012 -0.973205 -0.227058
vn -0.072726 -0.732505 -0.676809
vn 0.037599 -0.977233 -0.208777
vn 0.106845 -0.252297 -0.961699
vn 0.081088 -0.745445 -0.661611
vn 0.246986 -0.108127 0.962951
vn 0.467238 -0.601947 0.647542
vn 0.664968 -0.723380 0.185766
vn 0.708670 -0.674886 0.205573
vn 0.691366 -0.722465 0.000000
vn 0.675008 -0.706259 -0.213263
vn 0.708243 -0.679312 -0.191992
vn 0.722434 -0.691397 0.000000
vn 0.545122 -0.484207 -0.684378
vn 0.473525 -0.539476 -0.696219
vn 0.735374 -0.063875 0.674612
vn 0.985565 -0.020692 0.167852
vn 0.978332 0.023865 0.205573
vn 0.999756 -0.021973 0.000000
vn 0.976714 -0.022065 -0.213263
vn 0.981170 0.020447 -0.191992
vn 0.999756 0.021943 0.000000
vn 0.726859 0.049593 -0.684957
vn 0.717460 -0.038301 -0.695517
vn 0.251350 -0.101260 -0.962554
vn -0.601886 -0.468703 0.646535
vn -0.440718 -0.602252 0.665578
vn -0.657613 -0.718284 0.227119
vn -0.721641 -0.665670 0.189886
vn -0.691397 -0.722434 0.000000
vn -0.722465 -0.691366 0.000000
vn -0.713065 -0.663503 -0.226356
vn -0.567125 -0.468062 -0.677664
vn -0.680410 -0.706809 -0.193396
vn -0.102298 -0.254250 -0.961699
vn -0.481521 -0.546709 -0.684957
vn 0.719047 0.048219 0.693258
vn 0.625935 -0.284036 0.726279
vn 0.547746 -0.467605 0.693747
vn 0.895535 -0.379833 0.231697
vn 0.923856 -0.382672 0.000000
vn 0.899319 -0.367931 -0.236244
vn 0.649983 -0.252388 -0.716788
vn 0.290078 -0.654530 0.698111
vn 0.379040 -0.892788 0.243263
vn 0.382641 -0.923856 0.000000
vn 0.358837 -0.896329 -0.260323
vn 0.247627 -0.657643 -0.711417
vn -0.297067 -0.669393 0.680898
vn -0.138249 -0.758751 0.636525
vn -0.364818 -0.882778 0.295938
vn -0.382672 -0.923856 0.000000
vn -0.352214 -0.899258 -0.259316
vn -0.238350 -0.656575 -0.715567
vn -0.888150 -0.367840 -0.275430
usemtl Material
s 1
f 48/1/1 5/2/2 7/3/3
f 54/4/4 11/5/5 48/1/1
f 60/6/6 15/7/7 54/4/4
f 15/8/7 60/9/6 13/10/8
f 13/10/8 56/11/9 6/12/10
f 52/13/11 8/14/12 6/12/10
f 34/15/13 31/16/14 49/17/15
f 55/18/16 49/17/15 37/19/17
f 37/19/17 43/20/18 59/21/19
f 57/22/20 59/21/19 43/20/18
f 39/23/21 30/24/22 50/25/23
f 30/24/22 35/26/24 50/25/23
f 95/27/25 24/28/26 32/29/27
f 38/30/28 32/29/27 25/31/29
f 25/31/29 27/32/30 42/33/31
f 40/34/32 42/35/31 27/36/30
f 26/37/33 23/38/34 40/34/32
f 23/38/34 96/39/35 35/26/24
f 83/40/36 7/3/3 4/41/37
f 10/42/38 20/43/39 4/41/37
f 16/44/40 22/45/41 10/42/38
f 22/46/41 16/47/40 21/48/42
f 21/48/42 12/49/43 19/50/44
f 8/14/12 84/51/45 19/50/44
f 51/52/46 7/3/3 34/15/13
f 52/13/11 35/26/24 96/39/35
f 24/28/26 95/27/25 92/53/47
f 97/54/48 25/31/29 24/28/26
f 27/32/30 25/31/29 97/54/48
f 26/37/33 27/36/30 102/55/49
f 23/38/34 26/37/33 100/56/50
f 96/39/35 23/38/34 91/57/51
f 34/15/13 32/29/27 29/58/52
f 31/16/14 34/15/13 29/59/52
f 38/30/28 36/60/53 32/29/27
f 38/30/28 42/33/31 44/61/54
f 42/35/31 40/34/32 41/62/55
f 40/34/32 33/63/56 41/62/55
f 33/63/56 35/26/24 28/64/57
f 35/26/24 30/24/22 28/65/57
f 30/24/22 39/23/21 41/66/55
f 39/23/21 43/20/18 44/67/54
f 43/20/18 37/19/17 36/68/53
f 36/68/53 37/19/17 31/16/14
f 51/52/46 49/17/15 46/69/58
f 48/1/1 51/52/46 46/70/58
f 55/18/16 53/71/59 49/17/15
f 53/72/59 54/4/4 46/70/58
f 55/18/16 59/21/19 53/71/59
f 60/6/6 54/4/4 61/73/60
f 56/11/9 60/9/6 58/74/61
f 59/21/19 57/22/20 61/75/60
f 57/22/20 50/25/23 45/76/62
f 47/77/63 56/11/9 58/74/61
f 50/25/23 52/13/11 45/76/62
f 52/13/11 47/77/63 45/78/62
f 7/3/3 5/2/2 2/79/64
f 4/41/37 7/3/3 2/80/64
f 11/5/5 9/81/65 2/79/64
f 9/82/65 10/42/38 2/80/64
f 11/5/5 15/7/7 9/81/65
f 16/44/40 10/42/38 17/83/66
f 12/49/43 16/47/40 14/84/67
f 15/8/7 13/10/8 17/85/66
f 13/10/8 6/12/10 1/86/68
f 3/87/69 12/49/43 14/84/67
f 8/14/12 3/87/69 1/88/68
f 6/12/10 8/14/12 1/86/68
f 83/40/36 18/89/70 80/90/71
f 20/43/39 85/91/72 80/90/71
f 20/43/39 22/45/41 85/91/72
f 22/46/41 21/48/42 90/92/73
f 21/48/42 19/50/44 79/93/74
f 19/50/44 84/51/45 79/93/74
f 123/94/75 126/95/76 68/96/77
f 129/97/78 123/94/75 72/98/79
f 135/99/80 129/97/78 76/100/81
f 76/101/81 74/102/82 135/103/80
f 74/102/82 67/104/83 131/105/84
f 127/106/85 122/107/86 67/104/83
f 109/108/87 126/95/76 124/109/88
f 130/110/89 112/111/90 124/109/88
f 112/111/90 130/110/89 134/112/91
f 132/113/92 114/114/93 118/115/94
f 114/114/93 132/113/92 105/116/95
f 105/116/95 125/117/96 127/106/85
f 95/27/25 109/108/87 107/118/97
f 113/119/98 98/120/99 107/118/97
f 98/120/99 113/119/98 117/121/100
f 115/122/101 99/123/102 101/124/103
f 99/123/102 115/122/101 93/125/104
f 93/125/104 108/126/105 110/127/106
f 83/40/36 81/128/107 65/129/108
f 71/130/109 65/129/108 86/131/110
f 77/132/111 71/130/109 89/133/112
f 89/134/112 87/135/113 77/136/111
f 87/135/113 82/137/114 73/138/115
f 69/139/116 64/140/117 82/137/114
f 126/95/76 109/108/87 68/96/77
f 69/139/116 84/51/45 127/106/85
f 94/141/118 92/142/47 95/27/25
f 97/143/48 92/142/47 94/141/118
f 101/144/103 102/145/49 97/143/48
f 99/123/102 100/146/50 102/147/49
f 93/125/104 91/148/51 100/146/50
f 96/39/35 91/148/51 93/125/104
f 109/108/87 104/149/119 107/118/97
f 106/150/120 104/151/119 109/108/87
f 113/119/98 107/118/97 111/152/121
f 113/119/98 111/152/121 119/153/122
f 117/154/100 119/155/122 116/156/123
f 115/122/101 116/156/123 108/126/105
f 108/126/105 103/157/124 110/127/106
f 110/127/106 103/158/124 105/116/95
f 105/116/95 103/158/124 116/159/123
f 114/114/93 116/159/123 119/160/122
f 118/161/94 119/162/122 111/163/121
f 111/163/121 104/151/119 106/150/120
f 126/95/76 121/164/125 124/109/88
f 123/94/75 121/165/125 126/95/76
f 130/110/89 124/109/88 121/164/125
f 128/166/126 121/165/125 123/94/75
f 130/110/89 128/167/126 136/168/127
f 135/99/80 136/169/127 128/166/126
f 131/105/84 133/170/128 136/171/127
f 134/172/91 136/173/127 133/174/128
f 132/113/92 133/174/128 125/117/96
f 122/107/86 120/175/129 131/105/84
f 125/117/96 120/176/129 127/106/85
f 127/106/85 120/175/129 122/107/86
f 68/96/77 63/177/130 66/178/131
f 65/129/108 63/179/130 68/96/77
f 72/98/79 66/178/131 63/177/130
f 70/180/132 63/179/130 71/130/109
f 72/98/79 70/181/132 76/100/81
f 77/132/111 78/182/133 71/130/109
f 73/138/115 75/183/134 77/136/111
f 76/101/81 78/184/133 74/102/82
f 74/102/82 75/185/134 62/186/135
f 64/140/117 62/187/135 75/183/134
f 69/139/116 62/187/135 64/140/117
f 67/104/83 62/186/135 69/139/116
f 83/40/36 80/188/71 81/128/107
f 86/131/110 81/128/107 80/188/71
f 86/131/110 85/189/72 89/133/112
f 89/134/112 90/190/73 87/135/113
f 87/135/113 88/191/136 79/192/74
f 82/137/114 79/192/74 84/51/45
f 51/52/46 48/1/1 7/3/3
f 11/5/5 5/2/2 48/1/1
f 15/7/7 11/5/5 54/4/4
f 60/9/6 56/11/9 13/10/8
f 56/11/9 47/77/63 6/12/10
f 47/77/63 52/13/11 6/12/10
f 51/52/46 34/15/13 49/17/15
f 49/17/15 31/16/14 37/19/17
f 55/18/16 37/19/17 59/21/19
f 39/23/21 57/22/20 43/20/18
f 57/22/20 39/23/21 50/25/23
f 35/26/24 52/13/11 50/25/23
f 34/15/13 95/27/25 32/29/27
f 32/29/27 24/28/26 25/31/29
f 38/30/28 25/31/29 42/33/31
f 26/37/33 40/34/32 27/36/30
f 23/38/34 33/63/56 40/34/32
f 33/63/56 23/38/34 35/26/24
f 18/89/70 83/40/36 4/41/37
f 20/43/39 18/89/70 4/41/37
f 22/45/41 20/43/39 10/42/38
f 16/47/40 12/49/43 21/48/42
f 12/49/43 3/87/69 19/50/44
f 3/87/69 8/14/12 19/50/44
f 7/3/3 83/40/36 95/27/25
f 34/15/13 7/3/3 95/27/25
f 8/14/12 52/13/11 96/39/35
f 84/51/45 8/14/12 96/39/35
f 92/53/47 97/54/48 24/28/26
f 102/193/49 27/32/30 97/54/48
f 100/56/50 26/37/33 102/55/49
f 91/57/51 23/38/34 100/56/50
f 36/60/53 29/58/52 32/29/27
f 36/60/53 38/30/28 44/61/54
f 44/194/54 42/35/31 41/62/55
f 33/63/56 28/64/57 41/62/55
f 28/65/57 30/24/22 41/66/55
f 41/66/55 39/23/21 44/67/54
f 44/195/54 43/20/18 36/68/53
f 29/59/52 36/68/53 31/16/14
f 53/71/59 46/69/58 49/17/15
f 54/4/4 48/1/1 46/70/58
f 59/21/19 61/196/60 53/71/59
f 54/4/4 53/72/59 61/73/60
f 60/9/6 61/197/60 58/74/61
f 57/22/20 58/198/61 61/75/60
f 58/198/61 57/22/20 45/76/62
f 45/78/62 47/77/63 58/74/61
f 5/2/2 11/5/5 2/79/64
f 10/42/38 4/41/37 2/80/64
f 15/7/7 17/199/66 9/81/65
f 10/42/38 9/82/65 17/83/66
f 16/47/40 17/200/66 14/84/67
f 13/10/8 14/201/67 17/85/66
f 14/201/67 13/10/8 1/86/68
f 1/88/68 3/87/69 14/84/67
f 18/89/70 20/43/39 80/90/71
f 22/45/41 90/202/73 85/91/72
f 21/48/42 88/203/136 90/92/73
f 88/203/136 21/48/42 79/93/74
f 66/178/131 123/94/75 68/96/77
f 123/94/75 66/178/131 72/98/79
f 129/97/78 72/98/79 76/100/81
f 74/102/82 131/105/84 135/103/80
f 67/104/83 122/107/86 131/105/84
f 69/139/116 127/106/85 67/104/83
f 106/150/120 109/108/87 124/109/88
f 112/111/90 106/150/120 124/109/88
f 118/161/94 112/111/90 134/112/91
f 134/172/91 132/113/92 118/115/94
f 132/113/92 125/117/96 105/116/95
f 110/127/106 105/116/95 127/106/85
f 94/141/118 95/27/25 107/118/97
f 98/120/99 94/141/118 107/118/97
f 101/144/103 98/120/99 117/121/100
f 117/154/100 115/122/101 101/124/103
f 115/122/101 108/126/105 93/125/104
f 96/39/35 93/125/104 110/127/106
f 68/96/77 83/40/36 65/129/108
f 65/129/108 81/128/107 86/131/110
f 71/130/109 86/131/110 89/133/112
f 87/135/113 73/138/115 77/136/111
f 82/137/114 64/140/117 73/138/115
f 84/51/45 69/139/116 82/137/114
f 109/108/87 95/27/25 83/40/36
f 68/96/77 109/108/87 83/40/36
f 84/51/45 96/39/35 110/127/106
f 127/106/85 84/51/45 110/127/106
f 98/120/99 97/143/48 94/141/118
f 98/120/99 101/144/103 97/143/48
f 101/124/103 99/123/102 102/147/49
f 99/123/102 93/125/104 100/146/50
f 107/118/97 104/149/119 111/152/121
f 117/121/100 113/119/98 119/153/122
f 115/122/101 117/154/100 116/156/123
f 116/156/123 103/157/124 108/126/105
f 114/114/93 105/116/95 116/159/123
f 118/115/94 114/114/93 119/160/122
f 112/111/90 118/161/94 111/163/121
f 112/111/90 111/163/121 106/150/120
f 128/167/126 130/110/89 121/164/125
f 129/97/78 128/166/126 123/94/75
f 134/112/91 130/110/89 136/168/127
f 129/97/78 135/99/80 128/166/126
f 135/103/80 131/105/84 136/171/127
f 132/113/92 134/172/91 133/174/128
f 133/174/128 120/176/129 125/117/96
f 120/175/129 133/170/128 131/105/84
f 70/181/132 72/98/79 63/177/130
f 63/179/130 65/129/108 71/130/109
f 70/181/132 78/204/133 76/100/81
f 78/182/133 70/180/132 71/130/109
f 75/183/134 78/205/133 77/136/111
f 78/184/133 75/185/134 74/102/82
f 67/104/83 74/102/82 62/186/135
f 73/138/115 64/140/117 75/183/134
f 85/189/72 86/131/110 80/188/71
f 85/189/72 90/206/73 89/133/112
f 90/190/73 88/191/136 87/135/113
f 82/137/114 87/135/113 79/192/74
